<svg width="20" height="16" viewBox="0 0 20 16" fill="none" xmlns="http://www.w3.org/2000/svg">
<path d="M2.925 15.075C2.025 14.175 1.3125 13.1209 0.7875 11.9125C0.2625 10.7042 0 9.40005 0 8.00005C0 6.60005 0.2625 5.29588 0.7875 4.08755C1.3125 2.87921 2.025 1.82505 2.925 0.925049L4 2.00005C3.23333 2.76672 2.625 3.66255 2.175 4.68755C1.725 5.71255 1.5 6.81672 1.5 8.00005C1.5 9.18338 1.72083 10.2834 2.1625 11.3C2.60417 12.3167 3.21667 13.2167 4 14L2.925 15.075ZM5.75 12.25C5.21667 11.7167 4.79167 11.0875 4.475 10.3625C4.15833 9.63755 4 8.85005 4 8.00005C4 7.15005 4.15833 6.36255 4.475 5.63755C4.79167 4.91255 5.21667 4.28338 5.75 3.75005L6.825 4.82505C6.425 5.22505 6.10417 5.69588 5.8625 6.23755C5.62083 6.77922 5.5 7.36672 5.5 8.00005C5.5 8.63338 5.61667 9.21671 5.85 9.75005C6.08333 10.2834 6.40833 10.7584 6.825 11.175L5.75 12.25ZM10 10C9.45 10 8.97917 9.80422 8.5875 9.41255C8.19583 9.02088 8 8.55005 8 8.00005C8 7.45005 8.19583 6.97922 8.5875 6.58755C8.97917 6.19588 9.45 6.00005 10 6.00005C10.55 6.00005 11.0208 6.19588 11.4125 6.58755C11.8042 6.97922 12 7.45005 12 8.00005C12 8.55005 11.8042 9.02088 11.4125 9.41255C11.0208 9.80422 10.55 10 10 10ZM14.25 12.25L13.175 11.175C13.575 10.775 13.8958 10.3042 14.1375 9.76255C14.3792 9.22088 14.5 8.63338 14.5 8.00005C14.5 7.36672 14.3833 6.78338 14.15 6.25005C13.9167 5.71672 13.5917 5.24171 13.175 4.82505L14.25 3.75005C14.7833 4.28338 15.2083 4.91255 15.525 5.63755C15.8417 6.36255 16 7.15005 16 8.00005C16 8.83338 15.8417 9.61255 15.525 10.3375C15.2083 11.0625 14.7833 11.7 14.25 12.25ZM17.075 15.075L16 14C16.7667 13.2334 17.375 12.3375 17.825 11.3125C18.275 10.2875 18.5 9.18338 18.5 8.00005C18.5 6.81672 18.2792 5.71671 17.8375 4.70005C17.3958 3.68338 16.7833 2.78338 16 2.00005L17.075 0.925049C17.975 1.84172 18.6875 2.90422 19.2125 4.11255C19.7375 5.32088 20 6.61672 20 8.00005C20 9.38338 19.7375 10.6792 19.2125 11.8875C18.6875 13.0959 17.975 14.1584 17.075 15.075Z" fill="#161B2C"/>
</svg>
