<svg width="40" height="40" viewBox="0 0 40 40" fill="none" xmlns="http://www.w3.org/2000/svg">
<path fill-rule="evenodd" clip-rule="evenodd" d="M31.4963 2.47778H8.50738C5.17775 2.47778 2.47775 5.17778 2.48145 8.50741V31.4926C2.48145 34.8222 5.17775 37.5185 8.50738 37.5185H31.4963C34.8259 37.5185 37.5222 34.8222 37.5222 31.4926V8.50371C37.5222 5.17408 34.8259 2.47778 31.4963 2.47778ZM31.3186 21.1851V25.5258H28.4223V21.1851C28.4223 17.1888 25.1816 13.9481 21.1853 13.9481H11.0557V11.0518H21.1853C23.9446 11.0518 26.4483 12.1555 28.2742 13.9481L28.4186 14.0925C30.2112 15.9221 31.3186 18.4258 31.3186 21.1851ZM25.5258 25.5297V22.6334C25.5258 19.4371 22.9332 16.8445 19.7369 16.8445H11.0518V31.3186C11.8518 31.3186 12.5777 30.9963 13.0999 30.4704C13.6221 29.9445 13.9481 29.2223 13.9481 28.4223V19.7371H19.7332C21.3332 19.7371 22.6295 21.0334 22.6295 22.6334V25.5297H25.5258ZM19.7371 25.5296V24.0815C19.7371 23.2815 19.089 22.6333 18.289 22.6333H16.8408V25.5296H19.7371Z" fill="#685CFF"/>
</svg>
