<svg width="20" height="20" viewBox="0 0 20 20" fill="none" xmlns="http://www.w3.org/2000/svg">
<path d="M10 20C8.61667 20 7.31667 19.7375 6.1 19.2125C4.88333 18.6875 3.825 17.975 2.925 17.075C2.025 16.175 1.3125 15.1167 0.7875 13.9C0.2625 12.6833 0 11.3833 0 10C0 8.61667 0.2625 7.31667 0.7875 6.1C1.3125 4.88333 2.025 3.825 2.925 2.925C3.825 2.025 4.88333 1.3125 6.1 0.7875C7.31667 0.2625 8.61667 0 10 0C11.3833 0 12.6833 0.2625 13.9 0.7875C15.1167 1.3125 16.175 2.025 17.075 2.925C17.975 3.825 18.6875 4.88333 19.2125 6.1C19.7375 7.31667 20 8.61667 20 10C20 11.3833 19.7375 12.6833 19.2125 13.9C18.6875 15.1167 17.975 16.175 17.075 17.075C16.175 17.975 15.1167 18.6875 13.9 19.2125C12.6833 19.7375 11.3833 20 10 20ZM10 18.5C11.05 18.5 12.0375 18.3292 12.9625 17.9875C13.8875 17.6458 14.725 17.1583 15.475 16.525L13.675 14.75C13.1583 15.1333 12.5917 15.4375 11.975 15.6625C11.3583 15.8875 10.7 16 10 16C8.33333 16 6.91667 15.4167 5.75 14.25C4.58333 13.0833 4 11.6667 4 10C4 8.33333 4.58333 6.91667 5.75 5.75C6.91667 4.58333 8.33333 4 10 4C11.6667 4 13.0833 4.58333 14.25 5.75C15.4167 6.91667 16 8.33333 16 10C16 10.7 15.8875 11.3583 15.6625 11.975C15.4375 12.5917 15.1333 13.1583 14.75 13.675L16.525 15.45C17.1417 14.7 17.625 13.8667 17.975 12.95C18.325 12.0333 18.5 11.05 18.5 10C18.5 7.63333 17.675 5.625 16.025 3.975C14.375 2.325 12.3667 1.5 10 1.5C7.63333 1.5 5.625 2.325 3.975 3.975C2.325 5.625 1.5 7.63333 1.5 10C1.5 12.3667 2.325 14.375 3.975 16.025C5.625 17.675 7.63333 18.5 10 18.5ZM10 14.5C10.4833 14.5 10.9458 14.4292 11.3875 14.2875C11.8292 14.1458 12.2333 13.9417 12.6 13.675L10.75 11.85C10.6333 11.9 10.5125 11.9375 10.3875 11.9625C10.2625 11.9875 10.1333 12 10 12C9.45 12 8.97917 11.8042 8.5875 11.4125C8.19583 11.0208 8 10.55 8 10C8 9.45 8.19583 8.97917 8.5875 8.5875C8.97917 8.19583 9.45 8 10 8C10.55 8 11.0208 8.19583 11.4125 8.5875C11.8042 8.97917 12 9.45 12 10C12 10.1333 11.9833 10.2667 11.95 10.4C11.9167 10.5333 11.875 10.6667 11.825 10.8L13.675 12.6C13.9417 12.2333 14.1458 11.8292 14.2875 11.3875C14.4292 10.9458 14.5 10.4833 14.5 10C14.5 8.75 14.0625 7.6875 13.1875 6.8125C12.3125 5.9375 11.25 5.5 10 5.5C8.75 5.5 7.6875 5.9375 6.8125 6.8125C5.9375 7.6875 5.5 8.75 5.5 10C5.5 11.25 5.9375 12.3125 6.8125 13.1875C7.6875 14.0625 8.75 14.5 10 14.5Z" fill="#151B2C"/>
</svg>
