<svg width="24" height="24" viewBox="0 0 24 24" fill="none" xmlns="http://www.w3.org/2000/svg">
<path d="M4.95 17.0502C3.95 16.0835 3.20833 14.9752 2.725 13.7252C2.24167 12.4752 2 11.2335 2 10.0002C2 8.76686 2.24167 7.5252 2.725 6.2752C3.20833 5.0252 3.95 3.91686 4.95 2.9502L5.825 3.8252C4.99167 4.64186 4.35417 5.6127 3.9125 6.7377C3.47083 7.8627 3.25 8.9502 3.25 10.0002C3.25 11.0502 3.47083 12.1377 3.9125 13.2627C4.35417 14.3877 4.99167 15.3585 5.825 16.1752L4.95 17.0502ZM7.25 14.7502C6.58333 14.1335 6.09167 13.3877 5.775 12.5127C5.45833 11.6377 5.3 10.8002 5.3 10.0002C5.3 9.2002 5.45833 8.3627 5.775 7.4877C6.09167 6.6127 6.58333 5.86686 7.25 5.2502L8.125 6.1252C7.64167 6.60853 7.25833 7.2127 6.975 7.9377C6.69167 8.6627 6.55 9.3502 6.55 10.0002C6.55 10.5835 6.69583 11.246 6.9875 11.9877C7.27917 12.7294 7.65833 13.3585 8.125 13.8752L7.25 14.7502ZM7.35 22.0002L10.675 11.8752C10.3917 11.6752 10.1625 11.4169 9.9875 11.1002C9.8125 10.7835 9.725 10.4169 9.725 10.0002C9.725 9.36686 9.94583 8.82936 10.3875 8.3877C10.8292 7.94603 11.3667 7.72519 12 7.72519C12.6333 7.72519 13.1708 7.94603 13.6125 8.3877C14.0542 8.82936 14.275 9.36686 14.275 10.0002C14.275 10.4169 14.1875 10.7835 14.0125 11.1002C13.8375 11.4169 13.6083 11.6752 13.325 11.8752L16.65 22.0002H15.175L14.45 19.7502H9.575L8.825 22.0002H7.35ZM10.05 18.2502H13.95L12 12.3002L10.05 18.2502ZM16.75 14.7502L15.875 13.8752C16.3583 13.3919 16.7417 12.7877 17.025 12.0627C17.3083 11.3377 17.45 10.6502 17.45 10.0002C17.45 9.41686 17.3042 8.75436 17.0125 8.0127C16.7208 7.27103 16.3417 6.64186 15.875 6.1252L16.75 5.2502C17.4 5.86686 17.8875 6.6127 18.2125 7.4877C18.5375 8.3627 18.7 9.2002 18.7 10.0002C18.7 10.7835 18.5375 11.6169 18.2125 12.5002C17.8875 13.3835 17.4 14.1335 16.75 14.7502ZM19.05 17.0502L18.175 16.1752C18.9917 15.3585 19.625 14.3877 20.075 13.2627C20.525 12.1377 20.75 11.0502 20.75 10.0002C20.75 8.9502 20.525 7.8627 20.075 6.7377C19.625 5.6127 18.9917 4.64186 18.175 3.8252L19.05 2.9502C20.05 3.91686 20.7917 5.0252 21.275 6.2752C21.7583 7.5252 22 8.76686 22 10.0002C22 11.2502 21.7708 12.496 21.3125 13.7377C20.8542 14.9794 20.1 16.0835 19.05 17.0502Z" fill="#161B2C"/>
</svg>
