<svg width="24" height="24" viewBox="0 0 24 24" fill="none" xmlns="http://www.w3.org/2000/svg">
<path d="M8.2 5.1002V5.8002L9.7 7.3002V5.1002L14.6 6.8002V12.2002L16.1 13.7002V6.8002L19.7 5.5002V17.3002L21.2 18.8002V4.7002C21.2 4.4002 21.1 4.1002 20.8 4.0002C20.5 3.8002 20.2 3.8002 20 4.0002L15.6 5.8002L8.9 3.2002L6.5 4.1002L7.7 5.3002L8.2 5.1002Z" fill="#161B2C"/>
<path d="M21.7998 22.1001L1.7998 2.1001L0.799805 3.2001L3.1998 5.6001C3.1998 5.7001 3.1998 5.8001 3.1998 5.9001V19.9001C3.1998 20.2001 3.2998 20.5001 3.5998 20.7001C3.8998 20.9001 4.1998 20.9001 4.3998 20.7001L8.8998 18.9001L15.4998 21.2001L17.8998 20.3001L20.6998 23.1001L21.7998 22.1001ZM4.6998 19.0001V7.1001L8.2998 10.7001V17.7001L4.6998 19.0001ZM9.6998 17.7001V12.2001L14.5998 17.1001V19.4001L9.6998 17.7001ZM16.0998 19.3001V18.5001L16.6998 19.1001L16.0998 19.3001Z" fill="#161B2C"/>
</svg>
