<svg width="24" height="24" viewBox="0 0 24 24" fill="none" xmlns="http://www.w3.org/2000/svg">
<path d="M22.3 22.3L1.5 1.5L0.5 2.6L3 5.1V21.1H19L21.3 23.4L22.3 22.3ZM10 12.1L12 14.1H10V12.1ZM6.4 8.6H4.4V6.6L6.4 8.6ZM8.5 19.6H4.5V15.6H8.5V19.6ZM4.5 14.1V10.1H8L8.5 10.6V14.1H4.5ZM10 19.6V15.6H13.5L14 16.1V19.6H10ZM15.5 19.6V17.6L17.5 19.6H15.5Z" fill="#161B2C"/>
<path d="M19.4999 4.6001V8.6001H11.3999L12.8999 10.1001H13.9999V11.2001L15.4999 12.7001V10.1001H19.4999V14.1001H16.8999L18.3999 15.6001H19.4999V16.7001L20.9999 18.2001V3.1001H5.8999L7.3999 4.6001H19.4999Z" fill="#161B2C"/>
</svg>
