<svg width="24" height="24" viewBox="0 0 24 24" fill="none" xmlns="http://www.w3.org/2000/svg">
<path d="M12.05 19.5C9.95005 19.5 8.17505 18.775 6.72505 17.325C5.27505 15.875 4.55005 14.1 4.55005 12C4.55005 9.9 5.27505 8.125 6.72505 6.675C8.17505 5.225 9.95005 4.5 12.05 4.5C13.2167 4.5 14.321 4.75833 15.363 5.275C16.4044 5.79167 17.2667 6.525 17.95 7.475V4.5H19.45V10.625H13.35V9.125H17.3C16.7667 8.15833 16.0334 7.396 15.1 6.838C14.1667 6.27933 13.15 6 12.05 6C10.3834 6 8.96672 6.58333 7.80005 7.75C6.63338 8.91667 6.05005 10.3333 6.05005 12C6.05005 13.6667 6.63338 15.0833 7.80005 16.25C8.96672 17.4167 10.3834 18 12.05 18C13.3334 18 14.4917 17.6333 15.525 16.9C16.5584 16.1667 17.2834 15.2 17.7 14H19.275C18.825 15.6333 17.9294 16.9583 16.588 17.975C15.246 18.9917 13.7334 19.5 12.05 19.5Z" fill="#161B2C"/>
</svg>
